<svg width="446" height="395" viewBox="0 0 446 395" fill="none" xmlns="http://www.w3.org/2000/svg">
<path d="M292.058 15.706C286.465 6.01763 276.127 0.0493622 264.94 0.0493622H187.488C176.301 0.0493622 165.963 6.01765 160.37 15.706L121.644 82.7807C116.05 92.4692 116.05 104.406 121.644 114.094L160.37 181.169C165.963 190.857 176.301 196.826 187.488 196.826L244.369 196.826C258.716 196.826 267.682 212.356 260.509 224.781L232.671 272.998C227.077 282.686 227.077 294.623 232.671 304.311L271.397 371.386C276.99 381.075 287.328 387.043 298.515 387.043H375.967C387.154 387.043 397.492 381.075 403.085 371.386L441.811 304.311C447.405 294.623 447.405 282.686 441.811 272.998L403.085 205.923C397.492 196.235 387.154 190.267 375.967 190.267H319.086C304.739 190.267 295.773 174.736 302.946 162.311L330.784 114.094C336.378 104.406 336.378 92.4691 330.784 82.7807L292.058 15.706Z" fill="white"/>
<path d="M13.7729 240.628C32.1457 208.806 66.1004 189.202 102.846 189.202C139.591 189.202 173.546 208.806 191.919 240.628C210.292 272.451 210.292 311.658 191.919 343.481C173.546 375.303 139.591 394.906 102.846 394.906C66.1005 394.906 32.1457 375.303 13.7729 343.481C-4.60008 311.658 -4.60007 272.451 13.7729 240.628Z" fill="white"/>
</svg>
