<svg width="804" height="121" viewBox="0 0 804 121" fill="none" xmlns="http://www.w3.org/2000/svg">
<path d="M709.907 75.2309C708.44 91.2291 695.508 101.628 681.376 101.628C663.112 101.628 647.647 86.4296 647.647 64.832C647.647 43.901 663.512 28.0361 679.643 28.0361C699.908 28.0361 710.573 45.2342 710.573 66.5652H662.978C663.245 77.4973 665.245 84.9631 669.244 88.9627C672.577 92.1623 675.644 93.6288 681.91 93.6288C692.309 93.6288 699.908 85.6297 701.641 75.2309H709.907ZM679.643 35.7686C675.11 35.7686 671.911 37.2351 669.511 39.6348C665.912 43.2344 663.378 50.167 662.978 59.4993H694.575C694.442 49.5004 693.775 43.2344 690.175 39.6348C687.776 37.2351 684.309 35.7686 679.643 35.7686Z" fill="white"/>
<path d="M633.658 45.3668L611.794 100.427H600.995L580.064 45.3668C578.464 41.1006 577.131 38.9675 570.598 38.7009L564.332 38.4342V30.0352H606.861V38.4342L598.595 38.7009C594.862 38.8342 593.129 40.1674 594.996 45.3668L608.327 83.2292H609.661L624.192 45.5001C625.659 41.5005 624.326 38.8342 619.393 38.7009L612.46 38.4342V30.0352H648.456V38.4342L641.39 38.7009C637.124 38.8342 635.391 41.1006 633.658 45.3668Z" fill="white"/>
<path d="M547.412 19.9038C541.946 19.9038 537.947 15.9043 537.947 10.5715C537.947 5.23882 541.946 1.23926 547.412 1.23926C552.878 1.23926 556.878 5.23882 556.878 10.5715C556.878 15.9043 552.878 19.9038 547.412 19.9038ZM569.543 99.6283H526.348V91.2292L535.014 90.9626C539.813 90.8293 541.146 89.896 541.146 85.0966V47.1008C541.146 40.3016 539.28 38.9684 533.014 38.7017L525.281 38.4351V30.036L554.745 28.4362V85.0966C554.745 89.896 556.211 90.8293 560.877 90.9626L569.543 91.2292V99.6283Z" fill="white"/>
<path d="M492.115 6.03809V30.0354H518.646V38.8344H492.115V79.0966C492.115 90.8286 496.781 92.5618 503.181 92.5618C512.78 92.5618 514.113 86.4291 514.113 73.8972V65.8981H522.512V74.4305C522.512 94.5615 516.379 101.627 500.381 101.627C484.783 101.627 478.517 93.495 478.517 79.0966V38.8344H464.785V31.5019C480.117 27.9023 484.25 19.6366 485.183 6.03809H492.115Z" fill="white"/>
<path d="M425.032 112.16V120.559H381.304V112.16L389.969 111.893C394.769 111.76 396.102 110.827 396.102 106.027V47.1007C396.102 40.3014 394.236 38.9682 387.97 38.7016L380.237 38.435V30.0359L408.367 28.4361L409.034 44.1677H409.967C414.5 33.5022 422.499 28.0361 433.031 28.0361C449.296 28.0361 462.495 41.7679 462.495 64.832C462.495 88.1628 447.83 101.628 431.431 101.628C421.566 101.628 414.633 96.9618 410.634 88.4294H409.701V106.027C409.701 110.827 411.167 111.76 415.833 111.893L425.032 112.16ZM447.163 64.832C447.163 46.4341 439.964 37.2351 429.565 37.2351C425.032 37.2351 420.766 39.3682 417.433 42.8345C412.9 47.5006 409.967 54.6998 409.967 64.832C409.967 74.5643 412.634 82.4301 417.433 87.2295C420.633 90.4292 424.632 92.4289 429.432 92.4289C440.23 92.4289 447.163 83.4966 447.163 64.832Z" fill="white"/>
<path d="M384.047 79.4971C384.047 93.0955 379.381 101.628 367.516 101.628C355.517 101.628 352.184 95.6286 352.184 87.6295V85.8963H351.251C346.851 95.6286 338.719 101.628 328.72 101.628C317.921 101.628 309.122 95.7619 309.122 84.9631C309.122 72.4312 315.788 68.165 336.452 60.4325C338.719 59.4993 346.318 56.9662 351.517 55.3664V48.5672C351.517 39.6348 347.651 36.4352 337.786 36.4352C331.92 36.4352 326.32 37.6351 322.587 40.968C326.187 42.9678 328.453 45.7675 328.453 49.9004C328.453 54.5665 325.12 58.5661 319.654 58.5661C313.788 58.5661 310.189 54.4332 310.189 48.1672C310.189 37.6351 322.854 28.0361 340.052 28.0361C355.117 28.0361 365.116 34.7021 365.116 47.9006V85.0964C365.116 90.8291 366.849 92.4289 369.782 92.4289C373.248 92.4289 375.648 88.0294 375.648 78.4305V73.4977H384.047V79.4971ZM323.921 83.0967C323.921 89.7626 328.187 92.2956 333.253 92.2956C341.652 92.2956 351.517 81.7635 351.517 68.9649V62.0323C348.051 63.4988 344.052 65.0987 341.652 66.0319C328.587 71.098 323.921 74.6976 323.921 83.0967Z" fill="white"/>
<path d="M291.485 84.8295C291.485 89.7623 292.151 90.8288 296.817 90.9621L306.416 91.2288V99.6278L279.619 100.161V84.1629H278.153C273.753 95.7616 265.354 101.628 254.422 101.628C238.157 101.628 225.359 87.8958 225.359 64.8317C225.359 41.501 239.624 28.0358 256.022 28.0358C266.421 28.0358 273.22 33.3686 277.22 42.5675H278.553V19.6368C278.553 12.8375 276.686 11.371 270.42 11.2377L261.355 10.9711V2.57201L291.485 0.838867V84.8295ZM240.557 64.965C240.557 83.363 247.756 92.2953 258.155 92.2953C265.754 92.2953 270.954 88.1625 274.82 81.3632C277.22 76.9637 278.019 71.8976 278.019 64.8317C278.019 59.499 277.619 53.633 275.22 48.9668C271.62 42.0343 265.621 37.2348 258.288 37.2348C247.49 37.2348 240.557 46.3005 240.557 64.965Z" fill="white"/>
<path d="M139.524 76.9637L166.321 0.838867H175.787L204.184 80.9633C206.317 86.9626 208.583 89.8956 214.983 90.2956L225.115 90.8288V99.6278H171.388V90.8288L180.053 90.2956C186.986 89.8956 190.452 88.1625 188.052 80.9633L182.053 63.2319H154.323L149.923 76.9637C146.99 85.896 150.19 89.8956 156.856 90.2956L164.722 90.8288V99.6278H118.06V90.8288L124.993 90.2956C133.792 89.629 136.325 85.896 139.524 76.9637ZM157.122 54.8328H179.253L168.721 23.1031H167.388L157.122 54.8328Z" fill="white"/>
<path d="M772.953 0.839844H780.937V36.7368H802.39V43.5018H772.953V0.839844Z" fill="white"/>
<path d="M715.965 0.839844H728.702L739.551 31.6783C740.079 33.2629 740.445 34.5631 740.648 35.5788C740.729 35.335 740.79 35.0913 740.831 34.8475C740.953 34.3599 741.074 33.852 741.196 33.3238C741.359 32.7956 741.542 32.2471 741.745 31.6783L752.167 0.839844H764.782V43.5018H757.103V14.7964C757.103 11.9523 757.144 9.92074 757.225 8.70182L745.523 43.5018H735.772L723.4 8.70182C723.522 10.5708 723.583 12.6023 723.583 14.7964V43.5018H715.965V0.839844Z" fill="white"/>
<path d="M75.2761 4.8362C73.8483 2.36324 71.2097 0.839844 68.3542 0.839844H48.5846C45.729 0.839844 43.0904 2.36325 41.6626 4.8362L31.7779 21.957C30.3501 24.43 30.3501 27.4768 31.7779 29.9498L41.6626 47.0706C43.0904 49.5436 45.729 51.067 48.5846 51.067L63.1035 51.067C66.7654 51.067 69.0542 55.0312 67.2232 58.2026L60.1175 70.5099C58.6897 72.9829 58.6897 76.0297 60.1175 78.5027L70.0023 95.6235C71.43 98.0964 74.0686 99.6198 76.9242 99.6198H96.6938C99.5493 99.6198 102.188 98.0964 103.616 95.6235L113.5 78.5027C114.928 76.0297 114.928 72.9829 113.5 70.5099L103.616 53.3891C102.188 50.9161 99.5493 49.3927 96.6938 49.3927H82.1749C78.5129 49.3927 76.2242 45.4285 78.0552 42.2571L85.1609 29.9498C86.5887 27.4768 86.5887 24.43 85.1609 21.957L75.2761 4.8362Z" fill="white"/>
<path d="M4.24383 62.2475C8.93348 54.1248 17.6004 49.1211 26.9797 49.1211C36.3589 49.1211 45.0259 54.1248 49.7155 62.2475C54.4052 70.3702 54.4052 80.3778 49.7155 88.5006C45.0259 96.6232 36.3589 101.627 26.9797 101.627C17.6004 101.627 8.93348 96.6232 4.24383 88.5006C-0.445861 80.3778 -0.44586 70.3702 4.24383 62.2475Z" fill="white"/>
</svg>
