<svg width="1606" height="240" viewBox="0 0 1606 240" fill="none" xmlns="http://www.w3.org/2000/svg">
<path d="M1418.81 149.21C1415.88 181.206 1390.02 202.004 1361.75 202.004C1325.23 202.004 1294.3 171.607 1294.3 128.412C1294.3 86.5501 1326.03 54.8203 1358.29 54.8203C1398.82 54.8203 1420.15 89.2165 1420.15 131.878H1324.96C1325.49 153.743 1329.49 168.674 1337.49 176.673C1344.16 183.073 1350.29 186.006 1362.82 186.006C1383.62 186.006 1398.82 170.007 1402.28 149.21H1418.81ZM1358.29 70.2852C1349.22 70.2852 1342.82 73.2183 1338.02 78.0177C1330.82 85.2169 1325.76 99.082 1324.96 117.747H1388.15C1387.88 97.7489 1386.55 85.2169 1379.35 78.0177C1374.55 73.2183 1367.62 70.2852 1358.29 70.2852Z" fill="#272421"/>
<path d="M1266.32 89.4836L1222.59 199.605H1200.99L1159.13 89.4836C1155.93 80.9512 1153.26 76.685 1140.2 76.1517L1127.67 75.6184V58.8203H1212.72V75.6184L1196.19 76.1517C1188.73 76.4183 1185.26 79.0847 1188.99 89.4836L1215.66 165.208H1218.32L1247.39 89.7502C1250.32 81.7511 1247.65 76.4183 1237.79 76.1517L1223.92 75.6184V58.8203H1295.91V75.6184L1281.78 76.1517C1273.25 76.4183 1269.78 80.9512 1266.32 89.4836Z" fill="#272421"/>
<path d="M1093.83 38.5557C1082.89 38.5557 1074.89 30.5566 1074.89 19.8911C1074.89 9.22568 1082.89 1.22656 1093.83 1.22656C1104.76 1.22656 1112.76 9.22568 1112.76 19.8911C1112.76 30.5566 1104.76 38.5557 1093.83 38.5557ZM1138.09 198.005H1051.7V181.206L1069.03 180.673C1078.63 180.407 1081.29 178.54 1081.29 168.941V92.9497C1081.29 79.3512 1077.56 76.6848 1065.03 76.1515L1049.56 75.6183V58.8201L1108.49 55.6205V168.941C1108.49 178.54 1111.42 180.407 1120.76 180.673L1138.09 181.206V198.005Z" fill="#272421"/>
<path d="M983.232 10.8252V58.8198H1036.29V76.4179H983.232V156.942C983.232 180.406 992.565 183.873 1005.36 183.873C1024.56 183.873 1027.23 171.607 1027.23 146.543V130.545H1044.03V147.61C1044.03 187.872 1031.76 202.004 999.764 202.004C968.567 202.004 956.035 185.739 956.035 156.942V76.4179H928.572V61.7528C959.235 54.5536 967.501 38.0222 969.367 10.8252H983.232Z" fill="#272421"/>
<path d="M849.066 223.068V239.866H761.609V223.068L778.94 222.535C788.539 222.268 791.206 220.402 791.206 210.803V92.9494C791.206 79.3509 787.473 76.6845 774.941 76.1513L759.476 75.618V58.8199L815.736 55.6202L817.07 87.0834H818.936C828.002 65.7524 844 54.8203 865.064 54.8203C897.594 54.8203 923.991 82.2839 923.991 128.412C923.991 175.074 894.661 202.004 861.865 202.004C842.133 202.004 828.268 192.672 820.269 175.607H818.403V210.803C818.403 220.402 821.336 222.268 830.668 222.535L849.066 223.068ZM893.328 128.412C893.328 91.6162 878.929 73.2183 858.132 73.2183C849.066 73.2183 840.534 77.4844 833.868 84.417C824.802 93.7493 818.936 108.148 818.936 128.412C818.936 147.877 824.269 163.608 833.868 173.207C840.267 179.606 848.266 183.606 857.865 183.606C879.463 183.606 893.328 165.741 893.328 128.412Z" fill="#272421"/>
<path d="M767.096 157.742C767.096 184.939 757.764 202.004 734.033 202.004C710.036 202.004 703.37 190.005 703.37 174.007V170.541H701.503C692.704 190.005 676.439 202.004 656.442 202.004C634.844 202.004 617.246 190.272 617.246 168.674C617.246 143.61 630.578 135.078 671.907 119.613C676.439 117.747 691.638 112.681 702.036 109.481V95.8824C702.036 78.0177 694.304 71.6184 674.573 71.6184C662.841 71.6184 651.642 74.0182 644.176 80.6841C651.375 84.6836 655.908 90.283 655.908 98.5488C655.908 107.881 649.242 115.88 638.31 115.88C626.578 115.88 619.379 107.614 619.379 95.0825C619.379 74.0182 644.71 54.8203 679.106 54.8203C709.236 54.8203 729.233 68.1522 729.233 94.5492V168.941C729.233 180.406 732.7 183.606 738.566 183.606C745.498 183.606 750.298 174.807 750.298 155.609V145.743H767.096V157.742ZM646.843 164.941C646.843 178.273 655.375 183.339 665.507 183.339C682.305 183.339 702.036 162.275 702.036 136.678V122.813C695.104 125.746 687.105 128.945 682.305 130.812C656.175 140.944 646.843 148.143 646.843 164.941Z" fill="#272421"/>
<path d="M581.971 168.408C581.971 178.274 583.304 180.407 592.636 180.673L611.834 181.207V198.005L558.24 199.071V167.075H555.307C546.508 190.272 529.71 202.004 507.845 202.004C475.316 202.004 449.719 174.541 449.719 128.412C449.719 81.751 478.249 54.8207 511.045 54.8207C531.843 54.8207 545.441 65.4862 553.44 83.8841H556.107V38.0226C556.107 24.4241 552.374 21.4911 539.842 21.2244L521.711 20.6912V3.89304L581.971 0.426758V168.408ZM480.115 128.679C480.115 165.475 494.514 183.34 515.311 183.34C530.51 183.34 540.908 175.074 548.641 161.475C553.44 152.676 555.04 142.544 555.04 128.412C555.04 117.747 554.24 106.015 549.441 96.6827C542.242 82.8176 530.243 73.2186 515.578 73.2186C493.98 73.2186 480.115 91.35 480.115 128.679Z" fill="#272421"/>
<path d="M278.05 152.676L331.645 0.426758H350.576L407.369 160.676C411.636 172.674 416.168 178.54 428.967 179.34L449.231 180.407V198.005H341.777V180.407L359.108 179.34C372.973 178.54 379.906 175.074 375.106 160.676L363.108 125.213H307.647L298.848 152.676C292.982 170.541 299.381 178.54 312.713 179.34L328.445 180.407V198.005H235.122V180.407L248.987 179.34C266.585 178.007 271.651 170.541 278.05 152.676ZM313.247 108.415H357.508L336.444 44.9551H333.778L313.247 108.415Z" fill="#272421"/>
<path d="M1544.91 0.429688H1560.88V72.2236H1603.78V85.7535H1544.91V0.429688Z" fill="#272421"/>
<path d="M1430.93 0.429688H1456.41L1478.1 62.1066C1479.16 65.2758 1479.89 67.8761 1480.3 69.9076C1480.46 69.4201 1480.58 68.9325 1480.66 68.445C1480.91 67.4698 1481.15 66.4541 1481.39 65.3977C1481.72 64.3413 1482.09 63.2443 1482.49 62.1066L1503.33 0.429688H1528.57V85.7535H1513.21V28.3428C1513.21 22.6545 1513.29 18.5915 1513.45 16.1536L1490.05 85.7535H1470.55L1445.8 16.1536C1446.05 19.8916 1446.17 23.9547 1446.17 28.3428V85.7535H1430.93V0.429688Z" fill="#272421"/>
<path d="M149.554 8.42239C146.699 3.47649 141.421 0.429688 135.71 0.429688H96.1709C90.4599 0.429688 85.1827 3.4765 82.3271 8.4224L62.5576 42.664C59.702 47.61 59.702 53.7036 62.5576 58.6496L82.3271 92.8912C85.1827 97.8371 90.4599 100.884 96.1709 100.884L125.209 100.884C132.533 100.884 137.11 108.812 133.448 115.155L119.237 139.77C116.381 144.716 116.381 150.809 119.237 155.755L139.006 189.997C141.862 194.943 147.139 197.99 152.85 197.99H192.389C198.101 197.99 203.378 194.943 206.233 189.997L226.003 155.755C228.858 150.809 228.858 144.716 226.003 139.77L206.233 105.528C203.378 100.582 198.101 97.5355 192.389 97.5355H163.352C156.028 97.5355 151.45 89.607 155.112 83.2643L169.324 58.6496C172.179 53.7036 172.179 47.6099 169.324 42.664L149.554 8.42239Z" fill="#272421"/>
<path d="M7.4895 123.245C16.8688 107 34.2027 96.9922 52.9612 96.9922C71.7197 96.9922 89.0536 107 98.4329 123.245C107.812 139.49 107.812 159.506 98.4328 175.751C89.0536 191.996 71.7197 202.004 52.9612 202.004C34.2027 202.004 16.8688 191.996 7.48949 175.751C-1.88989 159.506 -1.88989 139.49 7.4895 123.245Z" fill="#272421"/>
</svg>
